<mxfile host="Electron" agent="Mozilla/5.0 (Windows NT 10.0; Win64; x64) AppleWebKit/537.36 (KHTML, like Gecko) draw.io/27.0.2 Chrome/134.0.6998.205 Electron/35.3.0 Safari/537.36" version="27.0.2" pages="3">
  <diagram name="Components" id="xYBBV7nOSjY4NY2vpBng">
    <mxGraphModel dx="868" dy="1691" grid="1" gridSize="10" guides="1" tooltips="1" connect="1" arrows="1" fold="1" page="1" pageScale="1" pageWidth="827" pageHeight="1169" math="0" shadow="0">
      <root>
        <mxCell id="0" />
        <mxCell id="1" parent="0" />
        <mxCell id="p2mVN77To-OGMYbwUZbQ-7" value="UserDB&#xa;(Supabase) " style="shape=cylinder3;boundedLbl=1;backgroundOutline=1;size=10;strokeWidth=2;whiteSpace=wrap;" parent="1" vertex="1">
          <mxGeometry x="175" y="290" width="100" height="60" as="geometry" />
        </mxCell>
        <mxCell id="p2mVN77To-OGMYbwUZbQ-12" value="Auth / User &#xa;management requests" style="curved=1;startArrow=block;endArrow=block;exitX=0;exitY=0.78;entryX=0.5;entryY=0.01;rounded=0;startFill=1;" parent="1" source="p2mVN77To-OGMYbwUZbQ-1" target="p2mVN77To-OGMYbwUZbQ-2" edge="1">
          <mxGeometry x="-0.2835" y="2" relative="1" as="geometry">
            <Array as="points">
              <mxPoint x="160" y="160" />
            </Array>
            <mxPoint as="offset" />
          </mxGeometry>
        </mxCell>
        <mxCell id="p2mVN77To-OGMYbwUZbQ-13" value="Exercises / Submit audio" style="startArrow=block;endArrow=block;exitX=0.75;exitY=1;entryX=0.5;entryY=0;rounded=0;entryDx=0;entryDy=0;startFill=1;exitDx=0;exitDy=0;" parent="1" source="p2mVN77To-OGMYbwUZbQ-1" target="p2mVN77To-OGMYbwUZbQ-3" edge="1">
          <mxGeometry relative="1" as="geometry" />
        </mxCell>
        <mxCell id="p2mVN77To-OGMYbwUZbQ-22" value="Get progress" style="curved=1;startArrow=block;endArrow=block;entryX=0.5;entryY=0;rounded=0;startFill=1;entryDx=0;entryDy=0;endFill=1;exitX=1;exitY=1;exitDx=0;exitDy=0;" parent="1" target="p2mVN77To-OGMYbwUZbQ-6" edge="1" source="p2mVN77To-OGMYbwUZbQ-1">
          <mxGeometry relative="1" as="geometry">
            <Array as="points" />
            <mxPoint x="538.25" y="98" as="sourcePoint" />
            <mxPoint x="535.75" y="198" as="targetPoint" />
          </mxGeometry>
        </mxCell>
        <mxCell id="fBQ5RQNbPDq6iLIHypz4-2" value="" style="group" parent="1" vertex="1" connectable="0">
          <mxGeometry x="160" y="200" width="130" height="40" as="geometry" />
        </mxCell>
        <mxCell id="p2mVN77To-OGMYbwUZbQ-2" value="User Service" style="whiteSpace=wrap;strokeWidth=2;" parent="fBQ5RQNbPDq6iLIHypz4-2" vertex="1">
          <mxGeometry width="130" height="40" as="geometry" />
        </mxCell>
        <mxCell id="fBQ5RQNbPDq6iLIHypz4-1" value="" style="shape=module;align=left;spacingLeft=20;align=center;verticalAlign=top;whiteSpace=wrap;html=1;jettyWidth=13;jettyHeight=4;" parent="fBQ5RQNbPDq6iLIHypz4-2" vertex="1">
          <mxGeometry x="105.40216927453771" y="7.4074074074074066" width="18.60775248933144" height="14.814814814814813" as="geometry" />
        </mxCell>
        <mxCell id="8GBVQgrVmN_Umn95bMOA-5" value="" style="group" parent="1" vertex="1" connectable="0">
          <mxGeometry x="545" y="200" width="110" height="40" as="geometry" />
        </mxCell>
        <mxCell id="p2mVN77To-OGMYbwUZbQ-3" value="Exercise Service" style="whiteSpace=wrap;strokeWidth=2;" parent="8GBVQgrVmN_Umn95bMOA-5" vertex="1">
          <mxGeometry width="110" height="40" as="geometry" />
        </mxCell>
        <mxCell id="fBQ5RQNbPDq6iLIHypz4-3" value="" style="shape=module;align=left;spacingLeft=20;align=center;verticalAlign=top;whiteSpace=wrap;html=1;jettyWidth=13;jettyHeight=4;" parent="8GBVQgrVmN_Umn95bMOA-5" vertex="1">
          <mxGeometry x="93.74769736842106" y="2.962962962962963" width="13.240131578947368" height="14.814814814814813" as="geometry" />
        </mxCell>
        <mxCell id="8GBVQgrVmN_Umn95bMOA-6" value="" style="group" parent="1" vertex="1" connectable="0">
          <mxGeometry x="320" y="200" width="120" height="40" as="geometry" />
        </mxCell>
        <mxCell id="p2mVN77To-OGMYbwUZbQ-5" value="Speech AI &#xa;Service" style="whiteSpace=wrap;strokeWidth=2;" parent="8GBVQgrVmN_Umn95bMOA-6" vertex="1">
          <mxGeometry width="120" height="40" as="geometry" />
        </mxCell>
        <mxCell id="fBQ5RQNbPDq6iLIHypz4-5" value="" style="shape=module;align=left;spacingLeft=20;align=center;verticalAlign=top;whiteSpace=wrap;html=1;jettyWidth=13;jettyHeight=4;" parent="8GBVQgrVmN_Umn95bMOA-6" vertex="1">
          <mxGeometry x="102.27021531100485" y="7.4074074074074066" width="14.443779904306218" height="14.814814814814813" as="geometry" />
        </mxCell>
        <mxCell id="8GBVQgrVmN_Umn95bMOA-8" value="" style="group" parent="1" vertex="1" connectable="0">
          <mxGeometry x="780" y="200" width="130" height="40" as="geometry" />
        </mxCell>
        <mxCell id="p2mVN77To-OGMYbwUZbQ-6" value="Progress Service" style="whiteSpace=wrap;strokeWidth=2;" parent="8GBVQgrVmN_Umn95bMOA-8" vertex="1">
          <mxGeometry width="130" height="40" as="geometry" />
        </mxCell>
        <mxCell id="fBQ5RQNbPDq6iLIHypz4-6" value="" style="shape=module;align=left;spacingLeft=20;align=center;verticalAlign=top;whiteSpace=wrap;html=1;jettyWidth=13;jettyHeight=4;" parent="8GBVQgrVmN_Umn95bMOA-8" vertex="1">
          <mxGeometry x="110.54926315789477" y="5.925925925925926" width="15.736842105263158" height="14.814814814814813" as="geometry" />
        </mxCell>
        <mxCell id="8GBVQgrVmN_Umn95bMOA-11" value="" style="group" parent="1" vertex="1" connectable="0">
          <mxGeometry x="407" y="40" width="260" height="60" as="geometry" />
        </mxCell>
        <mxCell id="p2mVN77To-OGMYbwUZbQ-1" value="API Gateway" style="whiteSpace=wrap;strokeWidth=2;" parent="8GBVQgrVmN_Umn95bMOA-11" vertex="1">
          <mxGeometry width="260" height="60.00000000000001" as="geometry" />
        </mxCell>
        <mxCell id="8GBVQgrVmN_Umn95bMOA-10" value="" style="shape=module;align=left;spacingLeft=20;align=center;verticalAlign=top;whiteSpace=wrap;html=1;jettyWidth=13;jettyHeight=4;" parent="8GBVQgrVmN_Umn95bMOA-11" vertex="1">
          <mxGeometry x="226.81631578947372" y="7.692307692307693" width="21.184210526315788" height="15.384615384615387" as="geometry" />
        </mxCell>
        <mxCell id="8GBVQgrVmN_Umn95bMOA-13" value="" style="group" parent="1" vertex="1" connectable="0">
          <mxGeometry x="407" y="-80" width="260" height="60" as="geometry" />
        </mxCell>
        <mxCell id="8GBVQgrVmN_Umn95bMOA-1" value="Mobile Client (React Native)" style="whiteSpace=wrap;strokeWidth=2;" parent="8GBVQgrVmN_Umn95bMOA-13" vertex="1">
          <mxGeometry width="260" height="60" as="geometry" />
        </mxCell>
        <mxCell id="8GBVQgrVmN_Umn95bMOA-12" value="" style="shape=module;align=left;spacingLeft=20;align=center;verticalAlign=top;whiteSpace=wrap;html=1;jettyWidth=13;jettyHeight=4;" parent="8GBVQgrVmN_Umn95bMOA-13" vertex="1">
          <mxGeometry x="223.2305263157895" y="9.375" width="20.39961013645224" height="18.75" as="geometry" />
        </mxCell>
        <mxCell id="8GBVQgrVmN_Umn95bMOA-15" value="Client requests (REST API)" style="curved=1;startArrow=block;endArrow=block;exitX=0.5;exitY=0;rounded=0;exitDx=0;exitDy=0;startFill=1;endFill=1;entryX=0.5;entryY=1;entryDx=0;entryDy=0;" parent="1" source="p2mVN77To-OGMYbwUZbQ-1" target="8GBVQgrVmN_Umn95bMOA-1" edge="1">
          <mxGeometry relative="1" as="geometry">
            <Array as="points" />
            <mxPoint x="536.5" y="20" as="sourcePoint" />
            <mxPoint x="560" y="-50" as="targetPoint" />
          </mxGeometry>
        </mxCell>
        <mxCell id="8GBVQgrVmN_Umn95bMOA-21" value="CRUD" style="startArrow=block;endArrow=block;exitX=0.5;exitY=1;entryX=0.5;entryY=0;rounded=0;entryDx=0;entryDy=0;entryPerimeter=0;exitDx=0;exitDy=0;startFill=1;" parent="1" source="p2mVN77To-OGMYbwUZbQ-2" target="p2mVN77To-OGMYbwUZbQ-7" edge="1">
          <mxGeometry x="0.0429" y="-15" relative="1" as="geometry">
            <mxPoint x="378" y="264" as="sourcePoint" />
            <mxPoint x="475" y="360" as="targetPoint" />
            <mxPoint as="offset" />
          </mxGeometry>
        </mxCell>
        <mxCell id="y59uR5LuGvnRk_ywU25c-1" value="ExerciseDB &#xa;(Supabase) " style="shape=cylinder3;boundedLbl=1;backgroundOutline=1;size=10;strokeWidth=2;whiteSpace=wrap;" parent="1" vertex="1">
          <mxGeometry x="550" y="280" width="100" height="60" as="geometry" />
        </mxCell>
        <mxCell id="y59uR5LuGvnRk_ywU25c-2" value="CRUD" style="startArrow=block;endArrow=block;exitX=0.5;exitY=1;entryX=0.5;entryY=0;rounded=0;entryDx=0;entryDy=0;entryPerimeter=0;exitDx=0;exitDy=0;startFill=1;" parent="1" source="p2mVN77To-OGMYbwUZbQ-3" target="y59uR5LuGvnRk_ywU25c-1" edge="1">
          <mxGeometry x="0.0429" y="-15" relative="1" as="geometry">
            <mxPoint x="357.5" y="247" as="sourcePoint" />
            <mxPoint x="628.5" y="357" as="targetPoint" />
            <mxPoint as="offset" />
          </mxGeometry>
        </mxCell>
        <mxCell id="y59uR5LuGvnRk_ywU25c-3" value="ProgressDB &#xa;(Supabase) " style="shape=cylinder3;boundedLbl=1;backgroundOutline=1;size=10;strokeWidth=2;whiteSpace=wrap;" parent="1" vertex="1">
          <mxGeometry x="795" y="280" width="100" height="60" as="geometry" />
        </mxCell>
        <mxCell id="y59uR5LuGvnRk_ywU25c-4" value="CRUD" style="startArrow=block;endArrow=block;exitX=0.5;exitY=1;entryX=0.5;entryY=0;rounded=0;entryDx=0;entryDy=0;entryPerimeter=0;exitDx=0;exitDy=0;startFill=1;" parent="1" source="p2mVN77To-OGMYbwUZbQ-6" target="y59uR5LuGvnRk_ywU25c-3" edge="1">
          <mxGeometry x="0.0429" y="-15" relative="1" as="geometry">
            <mxPoint x="514.5" y="250" as="sourcePoint" />
            <mxPoint x="785.5" y="360" as="targetPoint" />
            <mxPoint as="offset" />
          </mxGeometry>
        </mxCell>
        <mxCell id="Etla4LQHJqmJCs3Hxxjl-1" value="Analyze audio" style="startArrow=block;endArrow=block;exitX=1;exitY=1;entryX=0;entryY=0.5;rounded=0;entryDx=0;entryDy=0;startFill=1;exitDx=0;exitDy=0;" edge="1" parent="1" source="fBQ5RQNbPDq6iLIHypz4-5" target="p2mVN77To-OGMYbwUZbQ-3">
          <mxGeometry relative="1" as="geometry">
            <mxPoint x="482" y="110" as="sourcePoint" />
            <mxPoint x="395" y="210" as="targetPoint" />
          </mxGeometry>
        </mxCell>
        <mxCell id="Etla4LQHJqmJCs3Hxxjl-2" value="Save result" style="startArrow=block;endArrow=block;exitX=1;exitY=0.5;entryX=0;entryY=0.5;rounded=0;entryDx=0;entryDy=0;startFill=1;exitDx=0;exitDy=0;" edge="1" parent="1" source="p2mVN77To-OGMYbwUZbQ-3" target="p2mVN77To-OGMYbwUZbQ-6">
          <mxGeometry relative="1" as="geometry">
            <mxPoint x="486" y="232" as="sourcePoint" />
            <mxPoint x="610" y="230" as="targetPoint" />
          </mxGeometry>
        </mxCell>
      </root>
    </mxGraphModel>
  </diagram>
  <diagram id="GMMKHwHYgfViuYJ_TJ5e" name="Interaction">
    <mxGraphModel dx="1737" dy="-1295" grid="1" gridSize="10" guides="1" tooltips="1" connect="1" arrows="1" fold="1" page="1" pageScale="1" pageWidth="827" pageHeight="1169" math="0" shadow="0">
      <root>
        <mxCell id="0" />
        <mxCell id="1" parent="0" />
        <mxCell id="J_YrL8Z-V_99PUbtR6q0-2" value="&lt;span style=&quot;text-wrap-mode: wrap;&quot;&gt;Student&lt;/span&gt;" style="shape=umlActor;verticalLabelPosition=bottom;verticalAlign=top;html=1;outlineConnect=0;" parent="1" vertex="1">
          <mxGeometry x="195" y="2830" width="30" height="60" as="geometry" />
        </mxCell>
        <mxCell id="Ab9w9VLv6Wo1H-BED9EL-3" value="" style="group;strokeColor=none;" parent="1" vertex="1" connectable="0">
          <mxGeometry x="190" y="2880" width="40" height="860" as="geometry" />
        </mxCell>
        <mxCell id="J_YrL8Z-V_99PUbtR6q0-4" value="" style="endArrow=none;dashed=1;html=1;dashPattern=1 2;strokeWidth=1;rounded=0;" parent="Ab9w9VLv6Wo1H-BED9EL-3" edge="1">
          <mxGeometry width="50" height="50" relative="1" as="geometry">
            <mxPoint x="20" y="40" as="sourcePoint" />
            <mxPoint x="20" y="730" as="targetPoint" />
          </mxGeometry>
        </mxCell>
        <mxCell id="_MhR_gz8bH-Zz43vGGIE-1" value="" style="rounded=0;whiteSpace=wrap;html=1;fillColor=none;" vertex="1" parent="Ab9w9VLv6Wo1H-BED9EL-3">
          <mxGeometry x="15" y="50" width="10" height="80" as="geometry" />
        </mxCell>
        <mxCell id="G8jF-E2HVzzZhWQp50YD-1" value="" style="rounded=0;whiteSpace=wrap;html=1;fillColor=none;" vertex="1" parent="Ab9w9VLv6Wo1H-BED9EL-3">
          <mxGeometry x="15" y="160" width="10" height="170" as="geometry" />
        </mxCell>
        <mxCell id="G8jF-E2HVzzZhWQp50YD-4" value="" style="rounded=0;whiteSpace=wrap;html=1;fillColor=none;" vertex="1" parent="Ab9w9VLv6Wo1H-BED9EL-3">
          <mxGeometry x="15" y="390" width="10" height="290" as="geometry" />
        </mxCell>
        <mxCell id="-UCWnK53fg3cxfafiHvW-24" value="API Gateway" style="shape=umlLifeline;perimeter=lifelinePerimeter;whiteSpace=wrap;container=1;dropTarget=0;collapsible=0;recursiveResize=0;outlineConnect=0;portConstraint=eastwest;newEdgeStyle={&quot;edgeStyle&quot;:&quot;elbowEdgeStyle&quot;,&quot;elbow&quot;:&quot;vertical&quot;,&quot;curved&quot;:0,&quot;rounded&quot;:0};size=65;" vertex="1" parent="1">
          <mxGeometry x="387" y="2830" width="150" height="1290" as="geometry" />
        </mxCell>
        <mxCell id="-UCWnK53fg3cxfafiHvW-25" value="User Service" style="shape=umlLifeline;perimeter=lifelinePerimeter;whiteSpace=wrap;container=1;dropTarget=0;collapsible=0;recursiveResize=0;outlineConnect=0;portConstraint=eastwest;newEdgeStyle={&quot;edgeStyle&quot;:&quot;elbowEdgeStyle&quot;,&quot;elbow&quot;:&quot;vertical&quot;,&quot;curved&quot;:0,&quot;rounded&quot;:0};size=65;" vertex="1" parent="1">
          <mxGeometry x="587" y="2830" width="150" height="1290" as="geometry" />
        </mxCell>
        <mxCell id="-UCWnK53fg3cxfafiHvW-26" value="Exercise Service" style="shape=umlLifeline;perimeter=lifelinePerimeter;whiteSpace=wrap;container=1;dropTarget=0;collapsible=0;recursiveResize=0;outlineConnect=0;portConstraint=eastwest;newEdgeStyle={&quot;edgeStyle&quot;:&quot;elbowEdgeStyle&quot;,&quot;elbow&quot;:&quot;vertical&quot;,&quot;curved&quot;:0,&quot;rounded&quot;:0};size=65;" vertex="1" parent="1">
          <mxGeometry x="787" y="2830" width="150" height="1280" as="geometry" />
        </mxCell>
        <mxCell id="-UCWnK53fg3cxfafiHvW-27" value="Speech AI Service" style="shape=umlLifeline;perimeter=lifelinePerimeter;whiteSpace=wrap;container=1;dropTarget=0;collapsible=0;recursiveResize=0;outlineConnect=0;portConstraint=eastwest;newEdgeStyle={&quot;edgeStyle&quot;:&quot;elbowEdgeStyle&quot;,&quot;elbow&quot;:&quot;vertical&quot;,&quot;curved&quot;:0,&quot;rounded&quot;:0};size=65;" vertex="1" parent="1">
          <mxGeometry x="1119" y="2830" width="150" height="1290" as="geometry" />
        </mxCell>
        <mxCell id="-UCWnK53fg3cxfafiHvW-28" value="Progress Service" style="shape=umlLifeline;perimeter=lifelinePerimeter;whiteSpace=wrap;container=1;dropTarget=0;collapsible=0;recursiveResize=0;outlineConnect=0;portConstraint=eastwest;newEdgeStyle={&quot;edgeStyle&quot;:&quot;elbowEdgeStyle&quot;,&quot;elbow&quot;:&quot;vertical&quot;,&quot;curved&quot;:0,&quot;rounded&quot;:0};size=65;" vertex="1" parent="1">
          <mxGeometry x="1319" y="2830" width="150" height="1280" as="geometry" />
        </mxCell>
        <mxCell id="-UCWnK53fg3cxfafiHvW-29" value="Login / Auth request" style="verticalAlign=bottom;edgeStyle=elbowEdgeStyle;elbow=vertical;curved=0;rounded=0;endArrow=block;" edge="1" parent="1" target="-UCWnK53fg3cxfafiHvW-24">
          <mxGeometry relative="1" as="geometry">
            <Array as="points">
              <mxPoint x="260" y="2940" />
              <mxPoint x="347" y="2939" />
            </Array>
            <mxPoint x="214.63043478260875" y="2939" as="sourcePoint" />
          </mxGeometry>
        </mxCell>
        <mxCell id="-UCWnK53fg3cxfafiHvW-30" value="Verify credentials" style="verticalAlign=bottom;edgeStyle=elbowEdgeStyle;elbow=vertical;curved=0;rounded=0;endArrow=block;" edge="1" parent="1" target="-UCWnK53fg3cxfafiHvW-25">
          <mxGeometry relative="1" as="geometry">
            <Array as="points">
              <mxPoint x="650" y="2950" />
            </Array>
            <mxPoint x="467.00043478260875" y="2950" as="sourcePoint" />
            <mxPoint x="666.87" y="2950" as="targetPoint" />
          </mxGeometry>
        </mxCell>
        <mxCell id="-UCWnK53fg3cxfafiHvW-31" value="JWT Token" style="verticalAlign=bottom;edgeStyle=elbowEdgeStyle;elbow=vertical;curved=0;rounded=0;dashed=1;dashPattern=2 3;endArrow=block;exitX=0;exitY=0.75;exitDx=0;exitDy=0;" edge="1" parent="1" source="-UCWnK53fg3cxfafiHvW-47">
          <mxGeometry relative="1" as="geometry">
            <Array as="points">
              <mxPoint x="579.3" y="2980" />
            </Array>
            <mxPoint x="666.8" y="2980" as="sourcePoint" />
            <mxPoint x="467.00000000000006" y="2980" as="targetPoint" />
          </mxGeometry>
        </mxCell>
        <mxCell id="-UCWnK53fg3cxfafiHvW-32" value="JWT Token" style="verticalAlign=bottom;edgeStyle=elbowEdgeStyle;elbow=vertical;curved=0;rounded=0;dashed=1;dashPattern=2 3;endArrow=block;entryX=1.032;entryY=0.89;entryDx=0;entryDy=0;entryPerimeter=0;" edge="1" parent="1">
          <mxGeometry relative="1" as="geometry">
            <Array as="points">
              <mxPoint x="345.5" y="2990" />
            </Array>
            <mxPoint x="457" y="2990" as="sourcePoint" />
            <mxPoint x="215.31999999999994" y="2990.4300000000003" as="targetPoint" />
          </mxGeometry>
        </mxCell>
        <mxCell id="-UCWnK53fg3cxfafiHvW-33" value="Get exercise data" style="verticalAlign=bottom;edgeStyle=elbowEdgeStyle;elbow=vertical;curved=0;rounded=0;endArrow=block;" edge="1" parent="1">
          <mxGeometry relative="1" as="geometry">
            <mxPoint x="210.13043478260875" y="3070" as="sourcePoint" />
            <mxPoint x="457.0000000000002" y="3070.3333333333335" as="targetPoint" />
          </mxGeometry>
        </mxCell>
        <mxCell id="-UCWnK53fg3cxfafiHvW-34" value="Request exercise details" style="verticalAlign=bottom;edgeStyle=elbowEdgeStyle;elbow=vertical;curved=0;rounded=0;endArrow=block;" edge="1" parent="1">
          <mxGeometry relative="1" as="geometry">
            <Array as="points">
              <mxPoint x="671.42" y="3100" />
            </Array>
            <mxPoint x="462.08666666666676" y="3100" as="sourcePoint" />
            <mxPoint x="861.9200000000002" y="3100" as="targetPoint" />
          </mxGeometry>
        </mxCell>
        <mxCell id="-UCWnK53fg3cxfafiHvW-35" value="Exercise details" style="verticalAlign=bottom;edgeStyle=elbowEdgeStyle;elbow=vertical;curved=0;rounded=0;dashed=1;dashPattern=2 3;endArrow=block;" edge="1" parent="1">
          <mxGeometry relative="1" as="geometry">
            <Array as="points">
              <mxPoint x="674.63" y="3140" />
            </Array>
            <mxPoint x="862.1299999999995" y="3139.9999999999995" as="sourcePoint" />
            <mxPoint x="461.88" y="3139.9999999999995" as="targetPoint" />
          </mxGeometry>
        </mxCell>
        <mxCell id="-UCWnK53fg3cxfafiHvW-36" value="Exercise details" style="verticalAlign=bottom;edgeStyle=elbowEdgeStyle;elbow=vertical;curved=0;rounded=0;dashed=1;dashPattern=2 3;endArrow=block;" edge="1" parent="1">
          <mxGeometry relative="1" as="geometry">
            <Array as="points">
              <mxPoint x="345.5" y="3170" />
            </Array>
            <mxPoint x="456.9999999999998" y="3170" as="sourcePoint" />
            <mxPoint x="210.13043478260875" y="3170" as="targetPoint" />
          </mxGeometry>
        </mxCell>
        <mxCell id="-UCWnK53fg3cxfafiHvW-37" value="Submit audio for analysis" style="verticalAlign=bottom;edgeStyle=elbowEdgeStyle;elbow=vertical;curved=0;rounded=0;endArrow=block;" edge="1" parent="1">
          <mxGeometry relative="1" as="geometry">
            <Array as="points">
              <mxPoint x="342.5" y="3300" />
            </Array>
            <mxPoint x="210.13043478260875" y="3300" as="sourcePoint" />
            <mxPoint x="456.9999999999998" y="3300" as="targetPoint" />
          </mxGeometry>
        </mxCell>
        <mxCell id="-UCWnK53fg3cxfafiHvW-38" value="Send audio file" style="verticalAlign=bottom;edgeStyle=elbowEdgeStyle;elbow=vertical;curved=0;rounded=0;endArrow=block;" edge="1" parent="1" source="-UCWnK53fg3cxfafiHvW-24" target="-UCWnK53fg3cxfafiHvW-26">
          <mxGeometry relative="1" as="geometry">
            <Array as="points">
              <mxPoint x="550" y="3320" />
              <mxPoint x="671" y="3425" />
            </Array>
          </mxGeometry>
        </mxCell>
        <mxCell id="-UCWnK53fg3cxfafiHvW-39" value="Analyze audio" style="verticalAlign=bottom;edgeStyle=elbowEdgeStyle;elbow=vertical;curved=0;rounded=0;endArrow=block;exitX=1.127;exitY=0.174;exitDx=0;exitDy=0;exitPerimeter=0;" edge="1" parent="1" source="G8jF-E2HVzzZhWQp50YD-6">
          <mxGeometry relative="1" as="geometry">
            <Array as="points">
              <mxPoint x="1032.93" y="3341.29" />
            </Array>
            <mxPoint x="857.0014285714284" y="3341.29" as="sourcePoint" />
            <mxPoint x="1189.43" y="3341.29" as="targetPoint" />
          </mxGeometry>
        </mxCell>
        <mxCell id="-UCWnK53fg3cxfafiHvW-40" value="Pronunciation result (accuracy, score)" style="verticalAlign=bottom;edgeStyle=elbowEdgeStyle;elbow=vertical;curved=0;rounded=0;dashed=1;dashPattern=2 3;endArrow=block;" edge="1" parent="1">
          <mxGeometry relative="1" as="geometry">
            <Array as="points">
              <mxPoint x="1045.93" y="3380" />
            </Array>
            <mxPoint x="1199.43" y="3380" as="sourcePoint" />
            <mxPoint x="867.0014285714284" y="3380" as="targetPoint" />
          </mxGeometry>
        </mxCell>
        <mxCell id="-UCWnK53fg3cxfafiHvW-41" value="Save result / Update progress" style="verticalAlign=bottom;edgeStyle=elbowEdgeStyle;elbow=vertical;curved=0;rounded=0;endArrow=block;" edge="1" parent="1" target="-UCWnK53fg3cxfafiHvW-28">
          <mxGeometry relative="1" as="geometry">
            <Array as="points">
              <mxPoint x="1380" y="3430" />
              <mxPoint x="1142.93" y="3567" />
            </Array>
            <mxPoint x="867.0014285714284" y="3430" as="sourcePoint" />
            <mxPoint x="1399.43" y="3430" as="targetPoint" />
          </mxGeometry>
        </mxCell>
        <mxCell id="-UCWnK53fg3cxfafiHvW-42" value="Updated progress data" style="verticalAlign=bottom;edgeStyle=elbowEdgeStyle;elbow=vertical;curved=0;rounded=0;dashed=1;dashPattern=2 3;endArrow=block;" edge="1" parent="1">
          <mxGeometry x="0.0487" y="-10" relative="1" as="geometry">
            <Array as="points">
              <mxPoint x="1145.41" y="3470" />
            </Array>
            <mxPoint x="1398.91" y="3470" as="sourcePoint" />
            <mxPoint x="867.000909090909" y="3470" as="targetPoint" />
            <mxPoint as="offset" />
          </mxGeometry>
        </mxCell>
        <mxCell id="-UCWnK53fg3cxfafiHvW-43" value="Progress summary" style="verticalAlign=bottom;edgeStyle=elbowEdgeStyle;elbow=vertical;curved=0;rounded=0;dashed=1;dashPattern=2 3;endArrow=block;" edge="1" parent="1">
          <mxGeometry relative="1" as="geometry">
            <Array as="points">
              <mxPoint x="679.5" y="3490" />
            </Array>
            <mxPoint x="867.0000000000002" y="3490" as="sourcePoint" />
            <mxPoint x="466.9473684210525" y="3490" as="targetPoint" />
          </mxGeometry>
        </mxCell>
        <mxCell id="-UCWnK53fg3cxfafiHvW-44" value="Show updated progress" style="verticalAlign=bottom;edgeStyle=elbowEdgeStyle;elbow=vertical;curved=0;rounded=0;dashed=1;dashPattern=2 3;endArrow=block;" edge="1" parent="1">
          <mxGeometry relative="1" as="geometry">
            <Array as="points">
              <mxPoint x="345.5" y="3530" />
            </Array>
            <mxPoint x="457.0000000000002" y="3530" as="sourcePoint" />
            <mxPoint x="210.13043478260875" y="3530" as="targetPoint" />
          </mxGeometry>
        </mxCell>
        <mxCell id="-UCWnK53fg3cxfafiHvW-46" value="" style="rounded=0;whiteSpace=wrap;html=1;fillColor=none;" vertex="1" parent="1">
          <mxGeometry x="457" y="2930" width="10" height="70" as="geometry" />
        </mxCell>
        <mxCell id="-UCWnK53fg3cxfafiHvW-47" value="" style="rounded=0;whiteSpace=wrap;html=1;fillColor=none;" vertex="1" parent="1">
          <mxGeometry x="657" y="2940" width="10" height="50" as="geometry" />
        </mxCell>
        <mxCell id="G8jF-E2HVzzZhWQp50YD-2" value="" style="rounded=0;whiteSpace=wrap;html=1;fillColor=none;" vertex="1" parent="1">
          <mxGeometry x="457" y="3060" width="10" height="130" as="geometry" />
        </mxCell>
        <mxCell id="G8jF-E2HVzzZhWQp50YD-3" value="" style="rounded=0;whiteSpace=wrap;html=1;fillColor=none;" vertex="1" parent="1">
          <mxGeometry x="857" y="3090" width="10" height="60" as="geometry" />
        </mxCell>
        <mxCell id="G8jF-E2HVzzZhWQp50YD-5" value="" style="rounded=0;whiteSpace=wrap;html=1;fillColor=none;" vertex="1" parent="1">
          <mxGeometry x="457" y="3290" width="10" height="250" as="geometry" />
        </mxCell>
        <mxCell id="G8jF-E2HVzzZhWQp50YD-6" value="" style="rounded=0;whiteSpace=wrap;html=1;fillColor=none;" vertex="1" parent="1">
          <mxGeometry x="857" y="3312" width="10" height="198" as="geometry" />
        </mxCell>
        <mxCell id="G8jF-E2HVzzZhWQp50YD-7" value="" style="rounded=0;whiteSpace=wrap;html=1;fillColor=none;" vertex="1" parent="1">
          <mxGeometry x="1189" y="3330" width="10" height="60" as="geometry" />
        </mxCell>
        <mxCell id="G8jF-E2HVzzZhWQp50YD-8" value="" style="rounded=0;whiteSpace=wrap;html=1;fillColor=none;" vertex="1" parent="1">
          <mxGeometry x="1389" y="3420" width="10" height="60" as="geometry" />
        </mxCell>
        <mxCell id="G8jF-E2HVzzZhWQp50YD-9" value="&lt;span style=&quot;text-wrap-mode: wrap;&quot;&gt;Logoped&lt;/span&gt;" style="shape=umlActor;verticalLabelPosition=bottom;verticalAlign=top;html=1;outlineConnect=0;" vertex="1" parent="1">
          <mxGeometry x="115" y="2830" width="30" height="60" as="geometry" />
        </mxCell>
        <mxCell id="G8jF-E2HVzzZhWQp50YD-11" value="" style="group;strokeColor=none;" vertex="1" connectable="0" parent="1">
          <mxGeometry x="110" y="3570" width="40" height="860" as="geometry" />
        </mxCell>
        <mxCell id="G8jF-E2HVzzZhWQp50YD-12" value="" style="endArrow=none;dashed=1;html=1;dashPattern=1 2;strokeWidth=1;rounded=0;" edge="1" parent="G8jF-E2HVzzZhWQp50YD-11" source="G8jF-E2HVzzZhWQp50YD-13">
          <mxGeometry width="50" height="50" relative="1" as="geometry">
            <mxPoint x="20" as="sourcePoint" />
            <mxPoint x="20" y="590" as="targetPoint" />
          </mxGeometry>
        </mxCell>
        <mxCell id="G8jF-E2HVzzZhWQp50YD-13" value="" style="rounded=0;whiteSpace=wrap;html=1;fillColor=none;" vertex="1" parent="G8jF-E2HVzzZhWQp50YD-11">
          <mxGeometry x="15" y="43" width="10" height="97" as="geometry" />
        </mxCell>
        <mxCell id="G8jF-E2HVzzZhWQp50YD-14" value="" style="rounded=0;whiteSpace=wrap;html=1;fillColor=none;" vertex="1" parent="G8jF-E2HVzzZhWQp50YD-11">
          <mxGeometry x="15" y="160" width="10" height="170" as="geometry" />
        </mxCell>
        <mxCell id="G8jF-E2HVzzZhWQp50YD-15" value="" style="rounded=0;whiteSpace=wrap;html=1;fillColor=none;" vertex="1" parent="G8jF-E2HVzzZhWQp50YD-11">
          <mxGeometry x="15" y="390" width="10" height="170" as="geometry" />
        </mxCell>
        <mxCell id="G8jF-E2HVzzZhWQp50YD-16" value="Login / Auth request" style="verticalAlign=bottom;edgeStyle=elbowEdgeStyle;elbow=vertical;curved=0;rounded=0;endArrow=block;" edge="1" parent="1" target="-UCWnK53fg3cxfafiHvW-24">
          <mxGeometry relative="1" as="geometry">
            <Array as="points">
              <mxPoint x="186" y="3641" />
              <mxPoint x="273" y="3640" />
            </Array>
            <mxPoint x="140.63043478260875" y="3640" as="sourcePoint" />
            <mxPoint x="387" y="3641" as="targetPoint" />
          </mxGeometry>
        </mxCell>
        <mxCell id="G8jF-E2HVzzZhWQp50YD-17" value="" style="rounded=0;whiteSpace=wrap;html=1;fillColor=none;" vertex="1" parent="1">
          <mxGeometry x="457" y="3630" width="10" height="70" as="geometry" />
        </mxCell>
        <mxCell id="G8jF-E2HVzzZhWQp50YD-18" value="Verify credentials" style="verticalAlign=bottom;elbow=vertical;rounded=0;endArrow=block;entryX=0.012;entryY=0.182;entryDx=0;entryDy=0;entryPerimeter=0;exitX=0.859;exitY=0.423;exitDx=0;exitDy=0;exitPerimeter=0;" edge="1" parent="1" source="G8jF-E2HVzzZhWQp50YD-17" target="G8jF-E2HVzzZhWQp50YD-19">
          <mxGeometry relative="1" as="geometry">
            <mxPoint x="472.00043478260875" y="3660" as="sourcePoint" />
            <mxPoint x="667" y="3660" as="targetPoint" />
          </mxGeometry>
        </mxCell>
        <mxCell id="G8jF-E2HVzzZhWQp50YD-19" value="" style="rounded=0;whiteSpace=wrap;html=1;fillColor=none;" vertex="1" parent="1">
          <mxGeometry x="657" y="3650" width="10" height="50" as="geometry" />
        </mxCell>
        <mxCell id="G8jF-E2HVzzZhWQp50YD-20" value="JWT Token" style="verticalAlign=bottom;edgeStyle=elbowEdgeStyle;elbow=vertical;curved=0;rounded=0;dashed=1;dashPattern=2 3;endArrow=block;exitX=0;exitY=0.75;exitDx=0;exitDy=0;" edge="1" parent="1">
          <mxGeometry relative="1" as="geometry">
            <Array as="points">
              <mxPoint x="579.3" y="3682" />
            </Array>
            <mxPoint x="657" y="3680" as="sourcePoint" />
            <mxPoint x="467.00000000000006" y="3682" as="targetPoint" />
          </mxGeometry>
        </mxCell>
        <mxCell id="G8jF-E2HVzzZhWQp50YD-21" value="JWT Token" style="verticalAlign=bottom;elbow=vertical;rounded=0;dashed=1;dashPattern=2 3;endArrow=block;entryX=1.019;entryY=0.788;entryDx=0;entryDy=0;entryPerimeter=0;" edge="1" parent="1" target="G8jF-E2HVzzZhWQp50YD-13">
          <mxGeometry relative="1" as="geometry">
            <mxPoint x="457" y="3690" as="sourcePoint" />
            <mxPoint x="140" y="3690" as="targetPoint" />
          </mxGeometry>
        </mxCell>
        <mxCell id="FlZVjLtTJQrKc76m3Fx7-1" value="Request student progress / reports" style="verticalAlign=bottom;edgeStyle=elbowEdgeStyle;elbow=vertical;curved=0;rounded=0;endArrow=block;" edge="1" parent="1" target="-UCWnK53fg3cxfafiHvW-24">
          <mxGeometry relative="1" as="geometry">
            <Array as="points">
              <mxPoint x="298" y="3770" />
            </Array>
            <mxPoint x="130" y="3770" as="sourcePoint" />
            <mxPoint x="447" y="3770" as="targetPoint" />
          </mxGeometry>
        </mxCell>
        <mxCell id="FlZVjLtTJQrKc76m3Fx7-2" value="" style="rounded=0;whiteSpace=wrap;html=1;fillColor=none;" vertex="1" parent="1">
          <mxGeometry x="457" y="3760" width="10" height="120" as="geometry" />
        </mxCell>
        <mxCell id="K3D2tQKu_oqJW_XAArcG-1" value="Get student statistics" style="verticalAlign=bottom;edgeStyle=elbowEdgeStyle;elbow=vertical;curved=0;rounded=0;endArrow=block;" edge="1" parent="1" target="-UCWnK53fg3cxfafiHvW-28">
          <mxGeometry relative="1" as="geometry">
            <Array as="points">
              <mxPoint x="777" y="3790" />
            </Array>
            <mxPoint x="467" y="3790" as="sourcePoint" />
            <mxPoint x="1068" y="3790" as="targetPoint" />
          </mxGeometry>
        </mxCell>
        <mxCell id="K3D2tQKu_oqJW_XAArcG-2" value="" style="rounded=0;whiteSpace=wrap;html=1;fillColor=none;" vertex="1" parent="1">
          <mxGeometry x="1389" y="3780" width="10" height="70" as="geometry" />
        </mxCell>
        <mxCell id="y94SbeBF5gqe0mIhaoO7-1" value="Return progress overview" style="verticalAlign=bottom;edgeStyle=elbowEdgeStyle;elbow=vertical;curved=0;rounded=0;endArrow=none;startArrow=block;startFill=1;" edge="1" parent="1">
          <mxGeometry relative="1" as="geometry">
            <Array as="points">
              <mxPoint x="777" y="3828.67" />
            </Array>
            <mxPoint x="467" y="3828.67" as="sourcePoint" />
            <mxPoint x="1394" y="3828.67" as="targetPoint" />
          </mxGeometry>
        </mxCell>
        <mxCell id="jj8TV5EpgnE7qDwdE_bJ-1" value="Display reports and analytics" style="verticalAlign=bottom;edgeStyle=elbowEdgeStyle;elbow=vertical;curved=0;rounded=0;dashed=1;dashPattern=2 3;endArrow=block;" edge="1" parent="1">
          <mxGeometry relative="1" as="geometry">
            <Array as="points">
              <mxPoint x="311" y="3860" />
            </Array>
            <mxPoint x="457" y="3860" as="sourcePoint" />
            <mxPoint x="140" y="3860" as="targetPoint" />
          </mxGeometry>
        </mxCell>
        <mxCell id="b6E8dfysVkuxHQBVPm2r-1" value="Add or update exercise" style="verticalAlign=bottom;edgeStyle=elbowEdgeStyle;elbow=vertical;curved=0;rounded=0;endArrow=block;" edge="1" parent="1">
          <mxGeometry relative="1" as="geometry">
            <Array as="points">
              <mxPoint x="308" y="3990" />
            </Array>
            <mxPoint x="140" y="3990" as="sourcePoint" />
            <mxPoint x="457" y="3990" as="targetPoint" />
          </mxGeometry>
        </mxCell>
        <mxCell id="b6E8dfysVkuxHQBVPm2r-2" value="" style="rounded=0;whiteSpace=wrap;html=1;fillColor=none;" vertex="1" parent="1">
          <mxGeometry x="457" y="3970" width="10" height="130" as="geometry" />
        </mxCell>
        <mxCell id="MFL2MMa9n3KtqbMlOKFt-1" value="Save new exercise data" style="verticalAlign=bottom;elbow=vertical;rounded=0;endArrow=block;" edge="1" parent="1" target="-UCWnK53fg3cxfafiHvW-26">
          <mxGeometry x="-0.3257" relative="1" as="geometry">
            <mxPoint x="467" y="4010" as="sourcePoint" />
            <mxPoint x="780" y="4010" as="targetPoint" />
            <mxPoint as="offset" />
          </mxGeometry>
        </mxCell>
        <mxCell id="MFL2MMa9n3KtqbMlOKFt-2" value="" style="rounded=0;whiteSpace=wrap;html=1;fillColor=none;" vertex="1" parent="1">
          <mxGeometry x="857" y="3990" width="10" height="90" as="geometry" />
        </mxCell>
        <mxCell id="uLe8euBdsF8ahHUcZd92-1" value="Confirmation" style="verticalAlign=bottom;edgeStyle=elbowEdgeStyle;elbow=vertical;curved=0;rounded=0;dashed=1;dashPattern=2 3;endArrow=block;" edge="1" parent="1">
          <mxGeometry x="0.3502" relative="1" as="geometry">
            <Array as="points">
              <mxPoint x="711" y="4060" />
            </Array>
            <mxPoint x="857" y="4060" as="sourcePoint" />
            <mxPoint x="470" y="4060" as="targetPoint" />
            <mxPoint as="offset" />
          </mxGeometry>
        </mxCell>
        <mxCell id="lRbJAGwhqndGjVi5ZxSq-1" value="Operation successful" style="verticalAlign=bottom;edgeStyle=elbowEdgeStyle;elbow=vertical;curved=0;rounded=0;dashed=1;dashPattern=2 3;endArrow=block;" edge="1" parent="1">
          <mxGeometry x="0.0826" relative="1" as="geometry">
            <Array as="points">
              <mxPoint x="321" y="4080" />
            </Array>
            <mxPoint x="467" y="4080" as="sourcePoint" />
            <mxPoint x="140" y="4080" as="targetPoint" />
            <mxPoint as="offset" />
          </mxGeometry>
        </mxCell>
        <mxCell id="t9zPYrP0ttfnykqGCaO7-4" value="" style="endArrow=none;dashed=1;html=1;rounded=0;entryX=0.5;entryY=0;entryDx=0;entryDy=0;dashPattern=1 2;" edge="1" parent="1" target="G8jF-E2HVzzZhWQp50YD-13">
          <mxGeometry width="50" height="50" relative="1" as="geometry">
            <mxPoint x="130" y="2920" as="sourcePoint" />
            <mxPoint x="410" y="3240" as="targetPoint" />
          </mxGeometry>
        </mxCell>
      </root>
    </mxGraphModel>
  </diagram>
  <diagram id="8B7-nTb6829NQ9TNPhEv" name="Deployment">
    <mxGraphModel dx="1737" dy="1043" grid="1" gridSize="10" guides="1" tooltips="1" connect="1" arrows="1" fold="1" page="1" pageScale="1" pageWidth="827" pageHeight="1169" math="0" shadow="0">
      <root>
        <mxCell id="0" />
        <mxCell id="1" parent="0" />
        <mxCell id="PByq9gjCn98wKZSS0vdd-12" value="" style="rounded=1;whiteSpace=wrap;html=1;" parent="1" vertex="1">
          <mxGeometry x="560" y="190" width="930" height="850" as="geometry" />
        </mxCell>
        <mxCell id="qx7PBQrpSQZCwgPUB-eq-31" value="" style="group" parent="1" vertex="1" connectable="0">
          <mxGeometry x="170" y="240" width="60" height="90" as="geometry" />
        </mxCell>
        <mxCell id="qx7PBQrpSQZCwgPUB-eq-32" value="" style="shape=umlActor;verticalLabelPosition=bottom;verticalAlign=top;html=1;outlineConnect=0;" parent="qx7PBQrpSQZCwgPUB-eq-31" vertex="1">
          <mxGeometry x="15" y="30" width="30" height="60" as="geometry" />
        </mxCell>
        <mxCell id="qx7PBQrpSQZCwgPUB-eq-33" value="User" style="text;html=1;align=center;verticalAlign=middle;whiteSpace=wrap;rounded=0;" parent="qx7PBQrpSQZCwgPUB-eq-31" vertex="1">
          <mxGeometry width="60" height="30" as="geometry" />
        </mxCell>
        <mxCell id="qx7PBQrpSQZCwgPUB-eq-34" value="" style="endArrow=classic;html=1;rounded=0;exitX=0.5;exitY=0.5;exitDx=0;exitDy=0;exitPerimeter=0;edgeStyle=orthogonalEdgeStyle;entryX=0.5;entryY=0;entryDx=0;entryDy=0;" parent="1" source="qx7PBQrpSQZCwgPUB-eq-32" target="qx7PBQrpSQZCwgPUB-eq-37" edge="1">
          <mxGeometry width="50" height="50" relative="1" as="geometry">
            <mxPoint x="380" y="390" as="sourcePoint" />
            <mxPoint x="410" y="300" as="targetPoint" />
          </mxGeometry>
        </mxCell>
        <mxCell id="qx7PBQrpSQZCwgPUB-eq-35" value="" style="group" parent="1" vertex="1" connectable="0">
          <mxGeometry x="240" y="350" width="220" height="130" as="geometry" />
        </mxCell>
        <mxCell id="qx7PBQrpSQZCwgPUB-eq-36" value="" style="shape=cube;whiteSpace=wrap;html=1;boundedLbl=1;backgroundOutline=1;darkOpacity=0.05;darkOpacity2=0.1;fillColor=none;flipV=0;flipH=1;size=10;" parent="qx7PBQrpSQZCwgPUB-eq-35" vertex="1">
          <mxGeometry x="-10" width="230" height="130" as="geometry" />
        </mxCell>
        <mxCell id="qx7PBQrpSQZCwgPUB-eq-37" value="Mobile Client&lt;br&gt;&lt;div&gt;(React Native, LogopedMobile)&lt;/div&gt;" style="shape=module;align=left;spacingLeft=20;align=center;verticalAlign=top;whiteSpace=wrap;html=1;" parent="qx7PBQrpSQZCwgPUB-eq-35" vertex="1">
          <mxGeometry x="41.25" y="40" width="148.75" height="70" as="geometry" />
        </mxCell>
        <mxCell id="qx7PBQrpSQZCwgPUB-eq-38" value="&lt;u&gt;MobileClient&lt;/u&gt;" style="text;html=1;align=center;verticalAlign=middle;whiteSpace=wrap;rounded=0;" parent="qx7PBQrpSQZCwgPUB-eq-35" vertex="1">
          <mxGeometry y="10" width="70" height="30" as="geometry" />
        </mxCell>
        <mxCell id="qx7PBQrpSQZCwgPUB-eq-40" value="" style="group" parent="1" vertex="1" connectable="0">
          <mxGeometry x="580" y="330" width="450" height="630" as="geometry" />
        </mxCell>
        <mxCell id="qx7PBQrpSQZCwgPUB-eq-41" value="" style="shape=cube;whiteSpace=wrap;html=1;boundedLbl=1;backgroundOutline=1;darkOpacity=0.05;darkOpacity2=0.1;fillColor=none;flipV=0;flipH=1;size=10;" parent="qx7PBQrpSQZCwgPUB-eq-40" vertex="1">
          <mxGeometry x="20" y="-41.11" width="441.9643498786803" height="692.22" as="geometry" />
        </mxCell>
        <mxCell id="qx7PBQrpSQZCwgPUB-eq-45" value="&lt;div&gt;&lt;span style=&quot;background-color: transparent; color: light-dark(rgb(0, 0, 0), rgb(255, 255, 255));&quot;&gt;User Service&lt;/span&gt;&lt;/div&gt;&lt;div&gt;Container&lt;/div&gt;&lt;div&gt;&lt;br&gt;&lt;/div&gt;" style="shape=module;align=left;spacingLeft=20;align=center;verticalAlign=top;whiteSpace=wrap;html=1;" parent="qx7PBQrpSQZCwgPUB-eq-40" vertex="1">
          <mxGeometry x="263.29" y="170" width="153.49" height="50" as="geometry" />
        </mxCell>
        <mxCell id="qx7PBQrpSQZCwgPUB-eq-44" value="&lt;div&gt;API Gateway&lt;/div&gt;&lt;div&gt;(ASP.NET Core, project: LogopedAPI)&lt;/div&gt;&lt;div&gt;Handles routing and auth&lt;/div&gt;" style="shape=module;align=left;spacingLeft=20;align=center;verticalAlign=top;whiteSpace=wrap;html=1;" parent="qx7PBQrpSQZCwgPUB-eq-40" vertex="1">
          <mxGeometry x="36.160719535528386" y="60" width="297.32147173656676" height="70" as="geometry" />
        </mxCell>
        <mxCell id="PByq9gjCn98wKZSS0vdd-2" value="&lt;div&gt;&lt;span style=&quot;background-color: transparent; color: light-dark(rgb(0, 0, 0), rgb(255, 255, 255));&quot;&gt;Progress Service&lt;/span&gt;&lt;/div&gt;&lt;div&gt;Container&lt;/div&gt;" style="shape=module;align=left;spacingLeft=20;align=center;verticalAlign=top;whiteSpace=wrap;html=1;" parent="qx7PBQrpSQZCwgPUB-eq-40" vertex="1">
          <mxGeometry x="263.29" y="235" width="163.48" height="50" as="geometry" />
        </mxCell>
        <mxCell id="PByq9gjCn98wKZSS0vdd-4" value="&lt;div&gt;&lt;span style=&quot;background-color: transparent; color: light-dark(rgb(0, 0, 0), rgb(255, 255, 255));&quot;&gt;Speech&amp;nbsp;AI&lt;/span&gt;&lt;/div&gt;&lt;div&gt;Service&lt;br&gt;External API&lt;/div&gt;" style="shape=module;align=left;spacingLeft=20;align=center;verticalAlign=top;whiteSpace=wrap;html=1;" parent="qx7PBQrpSQZCwgPUB-eq-40" vertex="1">
          <mxGeometry x="259.44" y="480" width="161.2" height="50" as="geometry" />
        </mxCell>
        <mxCell id="PByq9gjCn98wKZSS0vdd-20" value="&lt;font style=&quot;font-size: 10px;&quot;&gt;HTTP request / response&lt;/font&gt;" style="text;html=1;align=center;verticalAlign=middle;whiteSpace=wrap;rounded=0;" parent="qx7PBQrpSQZCwgPUB-eq-40" vertex="1">
          <mxGeometry x="209.99914893617023" y="140" width="76.59574468085107" height="40" as="geometry" />
        </mxCell>
        <mxCell id="R_mO9W5n-wIM-9RzWZp2-4" style="edgeStyle=orthogonalEdgeStyle;rounded=0;orthogonalLoop=1;jettySize=auto;html=1;entryX=0;entryY=0;entryDx=0;entryDy=35;startArrow=block;startFill=1;entryPerimeter=0;" edge="1" parent="qx7PBQrpSQZCwgPUB-eq-40" target="qx7PBQrpSQZCwgPUB-eq-45">
          <mxGeometry relative="1" as="geometry">
            <mxPoint x="210" y="130" as="sourcePoint" />
            <mxPoint x="287.99" y="225" as="targetPoint" />
            <Array as="points">
              <mxPoint x="210" y="130" />
              <mxPoint x="210" y="205" />
            </Array>
          </mxGeometry>
        </mxCell>
        <mxCell id="NfLHWOPlbwy6jyjpgBe3-1" style="edgeStyle=orthogonalEdgeStyle;rounded=0;orthogonalLoop=1;jettySize=auto;html=1;exitX=0.5;exitY=1;exitDx=0;exitDy=0;entryX=0;entryY=0;entryDx=0;entryDy=15;startArrow=block;startFill=1;entryPerimeter=0;" edge="1" parent="qx7PBQrpSQZCwgPUB-eq-40" source="qx7PBQrpSQZCwgPUB-eq-44" target="PByq9gjCn98wKZSS0vdd-2">
          <mxGeometry relative="1" as="geometry">
            <mxPoint x="184.59000000000003" y="180" as="sourcePoint" />
            <mxPoint x="246.59000000000003" y="255" as="targetPoint" />
            <Array as="points">
              <mxPoint x="185" y="250" />
            </Array>
          </mxGeometry>
        </mxCell>
        <mxCell id="NfLHWOPlbwy6jyjpgBe3-2" value="&lt;font style=&quot;font-size: 10px;&quot;&gt;HTTP request / response&lt;/font&gt;" style="text;html=1;align=center;verticalAlign=middle;whiteSpace=wrap;rounded=0;" vertex="1" parent="qx7PBQrpSQZCwgPUB-eq-40">
          <mxGeometry x="186.69914893617033" y="215" width="76.59574468085107" height="40" as="geometry" />
        </mxCell>
        <mxCell id="JGrWIidDzedwmRAggCEQ-1" value="&lt;div&gt;Exercise Service&lt;br&gt;Container&lt;/div&gt;" style="shape=module;align=left;spacingLeft=20;align=center;verticalAlign=top;whiteSpace=wrap;html=1;" vertex="1" parent="qx7PBQrpSQZCwgPUB-eq-40">
          <mxGeometry x="256.65" y="360" width="166.77" height="50" as="geometry" />
        </mxCell>
        <mxCell id="cnlnQDM0fqhUjPUhJo0k-1" style="edgeStyle=orthogonalEdgeStyle;rounded=0;orthogonalLoop=1;jettySize=auto;html=1;exitX=0.351;exitY=1.005;exitDx=0;exitDy=0;startArrow=block;startFill=1;exitPerimeter=0;entryX=0;entryY=0;entryDx=0;entryDy=15;entryPerimeter=0;" edge="1" parent="qx7PBQrpSQZCwgPUB-eq-40" source="qx7PBQrpSQZCwgPUB-eq-44" target="JGrWIidDzedwmRAggCEQ-1">
          <mxGeometry relative="1" as="geometry">
            <mxPoint x="185" y="197.5" as="sourcePoint" />
            <mxPoint x="240" y="318" as="targetPoint" />
            <Array as="points">
              <mxPoint x="141" y="198" />
              <mxPoint x="140" y="315" />
            </Array>
          </mxGeometry>
        </mxCell>
        <mxCell id="cnlnQDM0fqhUjPUhJo0k-2" value="&lt;font style=&quot;font-size: 10px;&quot;&gt;HTTP request / response&lt;/font&gt;" style="text;html=1;align=center;verticalAlign=middle;whiteSpace=wrap;rounded=0;" vertex="1" parent="qx7PBQrpSQZCwgPUB-eq-40">
          <mxGeometry x="146.51914893617032" y="320" width="76.59574468085107" height="40" as="geometry" />
        </mxCell>
        <mxCell id="OqSNoS_csG-vF8MRwTuC-2" value="Save result" style="startArrow=block;endArrow=block;entryX=0.5;entryY=0;rounded=0;entryDx=0;entryDy=0;startFill=1;exitX=0.453;exitY=1.016;exitDx=0;exitDy=0;exitPerimeter=0;" edge="1" parent="qx7PBQrpSQZCwgPUB-eq-40" source="PByq9gjCn98wKZSS0vdd-2" target="JGrWIidDzedwmRAggCEQ-1">
          <mxGeometry relative="1" as="geometry">
            <mxPoint x="195" y="440" as="sourcePoint" />
            <mxPoint x="196" y="510" as="targetPoint" />
          </mxGeometry>
        </mxCell>
        <mxCell id="H34pHP9BbRsXu5LsHDRj-1" style="edgeStyle=orthogonalEdgeStyle;rounded=0;orthogonalLoop=1;jettySize=auto;html=1;exitX=0.216;exitY=0.995;exitDx=0;exitDy=0;startArrow=block;startFill=1;exitPerimeter=0;entryX=0;entryY=0;entryDx=0;entryDy=15;entryPerimeter=0;" edge="1" parent="qx7PBQrpSQZCwgPUB-eq-40" source="qx7PBQrpSQZCwgPUB-eq-44" target="PByq9gjCn98wKZSS0vdd-4">
          <mxGeometry relative="1" as="geometry">
            <mxPoint x="144" y="210" as="sourcePoint" />
            <mxPoint x="250" y="455" as="targetPoint" />
            <Array as="points">
              <mxPoint x="100" y="495" />
            </Array>
          </mxGeometry>
        </mxCell>
        <mxCell id="H34pHP9BbRsXu5LsHDRj-2" value="&lt;font style=&quot;font-size: 10px;&quot;&gt;HTTP request / response&lt;/font&gt;" style="text;html=1;align=center;verticalAlign=middle;whiteSpace=wrap;rounded=0;" vertex="1" parent="qx7PBQrpSQZCwgPUB-eq-40">
          <mxGeometry x="99.99914893617026" y="450" width="76.59574468085107" height="40" as="geometry" />
        </mxCell>
        <mxCell id="H34pHP9BbRsXu5LsHDRj-3" value="Audio analysis request / &#xa;Speech score response" style="startArrow=block;endArrow=block;entryX=0.5;entryY=0;rounded=0;entryDx=0;entryDy=0;startFill=1;exitX=0.5;exitY=1;exitDx=0;exitDy=0;" edge="1" parent="qx7PBQrpSQZCwgPUB-eq-40" source="JGrWIidDzedwmRAggCEQ-1" target="PByq9gjCn98wKZSS0vdd-4">
          <mxGeometry relative="1" as="geometry">
            <mxPoint x="347" y="296" as="sourcePoint" />
            <mxPoint x="350" y="370" as="targetPoint" />
          </mxGeometry>
        </mxCell>
        <mxCell id="qx7PBQrpSQZCwgPUB-eq-52" value="" style="group" parent="1" vertex="1" connectable="0">
          <mxGeometry x="155" y="670" width="370" height="210" as="geometry" />
        </mxCell>
        <mxCell id="qx7PBQrpSQZCwgPUB-eq-56" value="touch/microphone" style="text;html=1;align=center;verticalAlign=middle;whiteSpace=wrap;rounded=0;" parent="1" vertex="1">
          <mxGeometry x="230" y="270" width="150" height="30" as="geometry" />
        </mxCell>
        <mxCell id="jI17Su25iTWSpdpka_xO-2" value="" style="group" parent="1" vertex="1" connectable="0">
          <mxGeometry x="460" y="370" width="100" height="60" as="geometry" />
        </mxCell>
        <mxCell id="qx7PBQrpSQZCwgPUB-eq-39" value="" style="endArrow=classic;startArrow=classic;html=1;rounded=0;exitX=1;exitY=0.5;exitDx=0;exitDy=0;entryX=0;entryY=0;entryDx=0;entryDy=35;entryPerimeter=0;" parent="jI17Su25iTWSpdpka_xO-2" source="qx7PBQrpSQZCwgPUB-eq-37" target="qx7PBQrpSQZCwgPUB-eq-44" edge="1">
          <mxGeometry width="50" height="50" relative="1" as="geometry">
            <mxPoint x="60" y="80" as="sourcePoint" />
            <mxPoint x="110" y="30" as="targetPoint" />
          </mxGeometry>
        </mxCell>
        <mxCell id="qx7PBQrpSQZCwgPUB-eq-49" value="&lt;font style=&quot;font-size: 11px;&quot;&gt;REST API requests&lt;/font&gt;" style="text;html=1;align=center;verticalAlign=middle;whiteSpace=wrap;rounded=0;" parent="jI17Su25iTWSpdpka_xO-2" vertex="1">
          <mxGeometry x="20" y="20" width="80" height="40" as="geometry" />
        </mxCell>
        <mxCell id="qx7PBQrpSQZCwgPUB-eq-50" value="" style="endArrow=classic;startArrow=classic;html=1;rounded=0;exitX=0;exitY=0;exitDx=0;exitDy=35;entryX=1;entryY=0.5;entryDx=0;entryDy=0;exitPerimeter=0;" parent="1" source="qx7PBQrpSQZCwgPUB-eq-54" target="qx7PBQrpSQZCwgPUB-eq-45" edge="1">
          <mxGeometry width="50" height="50" relative="1" as="geometry">
            <mxPoint x="400" y="565" as="sourcePoint" />
            <mxPoint x="610" y="565" as="targetPoint" />
          </mxGeometry>
        </mxCell>
        <mxCell id="qx7PBQrpSQZCwgPUB-eq-42" value="&lt;u&gt;Server&amp;nbsp;&lt;/u&gt;&lt;u style=&quot;background-color: transparent; color: light-dark(rgb(0, 0, 0), rgb(255, 255, 255));&quot;&gt;solution:&lt;/u&gt;&lt;span style=&quot;background-color: transparent; color: light-dark(rgb(0, 0, 0), rgb(255, 255, 255));&quot;&gt;&amp;nbsp;&lt;/span&gt;&lt;div&gt;LogopedAIPlatform&lt;/div&gt;" style="text;html=1;align=center;verticalAlign=middle;whiteSpace=wrap;rounded=0;" parent="1" vertex="1">
          <mxGeometry x="845.7735621796693" y="280.00333333333333" width="195.83404411063358" height="71.88222222222223" as="geometry" />
        </mxCell>
        <mxCell id="PByq9gjCn98wKZSS0vdd-10" value="" style="group" parent="1" vertex="1" connectable="0">
          <mxGeometry x="1140" y="480" width="330" height="310" as="geometry" />
        </mxCell>
        <mxCell id="qx7PBQrpSQZCwgPUB-eq-53" value="" style="shape=cube;whiteSpace=wrap;html=1;boundedLbl=1;backgroundOutline=1;darkOpacity=0.05;darkOpacity2=0.1;fillColor=none;flipV=0;flipH=1;size=10;" parent="PByq9gjCn98wKZSS0vdd-10" vertex="1">
          <mxGeometry y="-20" width="290" height="330" as="geometry" />
        </mxCell>
        <mxCell id="qx7PBQrpSQZCwgPUB-eq-54" value="&lt;div&gt;&lt;/div&gt;&lt;div&gt;&lt;div&gt;Database&lt;/div&gt;&lt;div&gt;UserDB&lt;br&gt;Supabase&lt;/div&gt;&lt;/div&gt;" style="shape=module;align=left;spacingLeft=20;align=center;verticalAlign=top;whiteSpace=wrap;html=1;" parent="PByq9gjCn98wKZSS0vdd-10" vertex="1">
          <mxGeometry x="20.00000000000001" y="10" width="135.45" height="60" as="geometry" />
        </mxCell>
        <mxCell id="PByq9gjCn98wKZSS0vdd-6" value="&lt;div&gt;&lt;/div&gt;&lt;div&gt;&lt;div&gt;Database&lt;/div&gt;&lt;div&gt;ProgressDB&lt;br&gt;Supabase&lt;/div&gt;&lt;/div&gt;" style="shape=module;align=left;spacingLeft=20;align=center;verticalAlign=top;whiteSpace=wrap;html=1;" parent="PByq9gjCn98wKZSS0vdd-10" vertex="1">
          <mxGeometry x="20.00000000000001" y="90" width="135.45" height="60" as="geometry" />
        </mxCell>
        <mxCell id="PByq9gjCn98wKZSS0vdd-8" value="&lt;div&gt;&lt;/div&gt;&lt;div&gt;&lt;div&gt;Database&lt;/div&gt;&lt;div&gt;ExerciseDB&lt;br&gt;Supabase&lt;/div&gt;&lt;/div&gt;" style="shape=module;align=left;spacingLeft=20;align=center;verticalAlign=top;whiteSpace=wrap;html=1;" parent="PByq9gjCn98wKZSS0vdd-10" vertex="1">
          <mxGeometry x="20.00000000000001" y="220" width="135.45" height="60" as="geometry" />
        </mxCell>
        <mxCell id="qx7PBQrpSQZCwgPUB-eq-55" value="&lt;u&gt;Database server&lt;/u&gt;" style="text;html=1;align=center;verticalAlign=middle;whiteSpace=wrap;rounded=0;" parent="PByq9gjCn98wKZSS0vdd-10" vertex="1">
          <mxGeometry x="180" y="0.0046153846153629274" width="94.33155080213902" height="53.65384615384614" as="geometry" />
        </mxCell>
        <mxCell id="PByq9gjCn98wKZSS0vdd-9" value="" style="endArrow=classic;startArrow=classic;html=1;rounded=0;exitX=0;exitY=0;exitDx=0;exitDy=15;entryX=1;entryY=0.5;entryDx=0;entryDy=0;exitPerimeter=0;" parent="1" source="PByq9gjCn98wKZSS0vdd-8" target="JGrWIidDzedwmRAggCEQ-1" edge="1">
          <mxGeometry width="50" height="50" relative="1" as="geometry">
            <mxPoint x="400" y="762" as="sourcePoint" />
            <mxPoint x="635" y="750" as="targetPoint" />
          </mxGeometry>
        </mxCell>
        <mxCell id="PByq9gjCn98wKZSS0vdd-14" value="" style="group" parent="1" vertex="1" connectable="0">
          <mxGeometry x="1320" y="220" width="80" height="40" as="geometry" />
        </mxCell>
        <mxCell id="PByq9gjCn98wKZSS0vdd-15" value="&lt;span style=&quot;text-align: left;&quot;&gt;Node: Docker Host&lt;/span&gt;" style="text;html=1;align=center;verticalAlign=middle;whiteSpace=wrap;rounded=0;" parent="PByq9gjCn98wKZSS0vdd-14" vertex="1">
          <mxGeometry width="80" height="40" as="geometry" />
        </mxCell>
        <mxCell id="PByq9gjCn98wKZSS0vdd-19" value="&lt;font style=&quot;font-size: 11px;&quot;&gt;JSON responses&lt;/font&gt;" style="text;html=1;align=center;verticalAlign=middle;whiteSpace=wrap;rounded=0;" parent="1" vertex="1">
          <mxGeometry x="480" y="430" width="80" height="40" as="geometry" />
        </mxCell>
        <mxCell id="PByq9gjCn98wKZSS0vdd-23" value="&lt;font style=&quot;font-size: 11px;&quot;&gt;SQL queries / CRUD operations&lt;/font&gt;" style="text;html=1;align=center;verticalAlign=middle;whiteSpace=wrap;rounded=0;" parent="1" vertex="1">
          <mxGeometry x="1040" y="480" width="80" height="40" as="geometry" />
        </mxCell>
        <mxCell id="PByq9gjCn98wKZSS0vdd-25" value="&lt;font style=&quot;font-size: 11px;&quot;&gt;SQL queries / CRUD operations&lt;/font&gt;" style="text;html=1;align=center;verticalAlign=middle;whiteSpace=wrap;rounded=0;" parent="1" vertex="1">
          <mxGeometry x="1050" y="670" width="80" height="40" as="geometry" />
        </mxCell>
        <mxCell id="H34pHP9BbRsXu5LsHDRj-4" value="" style="endArrow=classic;startArrow=classic;html=1;rounded=0;exitX=0;exitY=0;exitDx=0;exitDy=15;entryX=1.003;entryY=0.383;entryDx=0;entryDy=0;exitPerimeter=0;entryPerimeter=0;" edge="1" parent="1" source="PByq9gjCn98wKZSS0vdd-6" target="PByq9gjCn98wKZSS0vdd-2">
          <mxGeometry width="50" height="50" relative="1" as="geometry">
            <mxPoint x="1170" y="725" as="sourcePoint" />
            <mxPoint x="1013" y="725" as="targetPoint" />
          </mxGeometry>
        </mxCell>
        <mxCell id="H34pHP9BbRsXu5LsHDRj-6" value="&lt;font style=&quot;font-size: 11px;&quot;&gt;SQL queries / CRUD operations&lt;/font&gt;" style="text;html=1;align=center;verticalAlign=middle;whiteSpace=wrap;rounded=0;" vertex="1" parent="1">
          <mxGeometry x="1041.61" y="545" width="80" height="40" as="geometry" />
        </mxCell>
      </root>
    </mxGraphModel>
  </diagram>
</mxfile>
